<?xml version="1.0" encoding="UTF-8" standalone="no"?><!DOCTYPE svg PUBLIC "-//W3C//DTD SVG 1.1//EN" "http://www.w3.org/Graphics/SVG/1.1/DTD/svg11.dtd"><svg width="100%" height="100%" viewBox="0 0 356 300" version="1.1" xmlns="http://www.w3.org/2000/svg" xmlns:xlink="http://www.w3.org/1999/xlink" xml:space="preserve" xmlns:northstack="https://northstack.com/" style="fill-rule:evenodd;clip-rule:evenodd;stroke-linejoin:round;stroke-miterlimit:1.41421;"><g id="NS-Logo" northstack:id="NS Logo"><path d="M0,290.122l0,-205.76c0,-5.162 4.248,-9.41 9.41,-9.41l205.76,0c5.159,0.004 9.402,4.251 9.402,9.41c0,2.493 -0.99,4.886 -2.752,6.65l-205.77,205.76c-1.763,1.755 -4.152,2.742 -6.64,2.742c-5.156,0 -9.4,-4.237 -9.41,-9.392Z" style="fill:#5c7d86;fill-rule:nonzero;"/><path d="M355.77,9.412l0,281c0,5.157 -4.243,9.4 -9.4,9.4c-0.003,0 -0.007,0 -0.01,0l-281,0c-5.159,-0.004 -9.402,-4.251 -9.402,-9.41c0,-2.493 0.99,-4.886 2.752,-6.65l281,-281c1.764,-1.762 4.157,-2.752 6.65,-2.752c5.162,0 9.41,4.247 9.41,9.41c0,0 0,0.001 0,0.002Z" style="fill:#e01b4a;fill-rule:nonzero;"/></g></svg>